# xmcd
#
# Track frame offsets: 
#        150
#        51485
#        104622
#        159762
#
# Disc length: 2738 seconds
#
# Revision: 1
# Processed by: cddbd v1.5.2PL0 Copyright (c) Steve Scherf et al.
# Submitted via: ExactAudioCopy v0.95b3
#
DISCID=2d0ab004
DTITLE=Jack DeJohnette - Jackeyboard (Remaster)
DYEAR=1973
DGENRE=Jazz
TTITLE0=McCoy's Tune
TTITLE1=Fun Calypso
TTITLE2=Minority Blues
TTITLE3=Jack's Blues
EXTD=YEAR: 1974
EXTT0=
EXTT1=
EXTT2=
EXTT3=
PLAYORDER=
